<svg version="1.2" baseProfile="tiny-ps" xmlns="http://www.w3.org/2000/svg" viewBox="0 0 512 512" width="512" height="512">
	<title>goodwaves-icon</title>
	<style>
		tspan { white-space:pre }
		.shp0 { fill: #1574de } 
	</style>
	<path id="wave 7" class="shp0" d="M411 257.9C411 268.34 402.53 276.8 392.09 276.8L392.09 276.8C381.65 276.8 373.19 268.33 373.19 257.89L373.19 255.37C373.2 244.93 381.66 236.47 392.1 236.47L392.1 236.47C402.54 236.48 411 244.94 411 255.38L411 257.9Z" />
	<path id="wave 6" class="shp0" d="M365.63 279.32C365.63 289.76 357.17 298.22 346.73 298.22L346.73 298.22C336.29 298.22 327.82 289.75 327.83 279.31L327.84 193.62C327.84 183.18 336.3 174.72 346.74 174.72L346.74 174.72C357.18 174.72 365.64 183.19 365.64 193.62L365.63 279.32Z" />
	<path id="wave 5" class="shp0" d="M320.26 303.25C320.26 313.69 311.8 322.16 301.36 322.15L301.36 322.15C290.92 322.15 282.45 313.69 282.46 303.25L282.48 143.21C282.48 132.77 290.94 124.31 301.38 124.31L301.38 124.31C311.82 124.31 320.28 132.77 320.28 143.21L320.26 303.25Z" />
	<path id="wave 4" class="shp0" d="M237.1 73.91C237.1 63.47 245.56 55 256 55L256 55C266.44 55 274.9 63.47 274.9 73.91L274.9 438.1C274.9 448.54 266.44 457 256 457L256 457C245.56 457 237.1 448.54 237.1 438.1L237.1 73.91Z" />
	<path id="wave 3" class="shp0" d="M191.73 211.26C191.73 200.83 200.2 192.36 210.64 192.36L210.64 192.36C221.08 192.36 229.54 200.83 229.54 211.26L229.54 371.31C229.54 381.75 221.08 390.21 210.64 390.21L210.64 390.21C200.2 390.21 191.73 381.75 191.73 371.31L191.73 211.26Z" />
	<path id="wave 2" class="shp0" d="M146.37 235.21C146.37 224.77 154.83 216.31 165.27 216.31L165.27 216.31C175.71 216.31 184.17 224.77 184.17 235.21L184.17 320.9C184.17 331.34 175.71 339.8 165.27 339.8L165.27 339.8C154.83 339.8 146.37 331.34 146.37 320.9L146.37 235.21Z" />
	<path id="wave 1" class="shp0" d="M101 255.37C101 244.93 109.46 236.47 119.9 236.47L119.9 236.47C130.34 236.47 138.81 244.93 138.81 255.37L138.81 257.89C138.81 268.33 130.34 276.79 119.9 276.79L119.9 276.79C109.46 276.79 101 268.33 101 257.89L101 255.37Z" />
</svg>