<svg version="1.2" baseProfile="tiny-ps" xmlns="http://www.w3.org/2000/svg" viewBox="0 0 512 512" width="512" height="512">
	<title>list-alt-solid-svg</title>
	<style>
		tspan { white-space:pre }
		.shp0 { fill: #000000 } 
	</style>
	<path id="Layer" fill-rule="evenodd" class="shp0" d="M464 480L48 480C21.49 480 0 458.51 0 432L0 80C0 53.49 21.49 32 48 32L464 32C490.51 32 512 53.49 512 80L512 432C512 458.51 490.51 480 464 480ZM128 120C105.91 120 88 137.91 88 160C88 182.09 105.91 200 128 200C150.09 200 168 182.09 168 160C168 137.91 150.09 120 128 120ZM128 216C105.91 216 88 233.91 88 256C88 278.09 105.91 296 128 296C150.09 296 168 278.09 168 256C168 233.91 150.09 216 128 216ZM128 312C105.91 312 88 329.91 88 352C88 374.09 105.91 392 128 392C150.09 392 168 374.09 168 352C168 329.91 150.09 312 128 312ZM416 176L416 144C416 137.37 410.63 132 404 132L204 132C197.37 132 192 137.37 192 144L192 176C192 182.63 197.37 188 204 188L404 188C410.63 188 416 182.63 416 176ZM416 272L416 240C416 233.37 410.63 228 404 228L204 228C197.37 228 192 233.37 192 240L192 272C192 278.63 197.37 284 204 284L404 284C410.63 284 416 278.63 416 272ZM416 368L416 336C416 329.37 410.63 324 404 324L204 324C197.37 324 192 329.37 192 336L192 368C192 374.63 197.37 380 204 380L404 380C410.63 380 416 374.63 416 368Z" />
</svg>