<svg version="1.2" baseProfile="tiny-ps" xmlns="http://www.w3.org/2000/svg" viewBox="0 0 448 512" width="448" height="512">
	<title>podcast-solid-svg</title>
	<style>
		tspan { white-space:pre }
		.shp0 { fill: #000000 } 
	</style>
	<path id="Layer" fill-rule="evenodd" class="shp0" d="M267.43 488.56C262.29 507.57 242.86 512 224 512C205.14 512 185.71 507.57 180.57 488.56C172.93 460.13 160 388.9 160 355.75C160 320.59 191.14 312 224 312C256.86 312 288 320.59 288 355.75C288 388.7 275.13 459.93 267.43 488.56ZM448 224C448 314.19 395.23 389.73 322.26 425.41C317.93 427.53 312.99 423.86 313.73 419.1C316.28 402.45 318.35 385.9 319.35 371.87C367.84 340.49 400 285.93 400 224C400 126.8 320.79 47.75 223.53 48C127.29 48.25 48.6 126.66 48 222.9C47.63 284.23 78.79 338.44 126.19 370.25C127.72 371.27 128.72 372.92 128.87 374.76C129.93 388.15 131.89 403.59 134.27 419.1C135.01 423.86 130.07 427.53 125.74 425.41C52.6 389.65 0 313.99 0 224C0 100.18 100.2 0 224 0C347.82 0 448 100.2 448 224ZM156.87 288.55C159.54 291.17 159.27 295.54 156.24 297.74C146.93 304.5 139.78 313.08 135 323.1C133.26 326.76 128.5 327.76 125.55 324.99C97.53 298.7 80 261.36 80 220C80 139.22 146.87 73.75 228.16 76.06C304.36 78.22 366.1 140.22 367.96 216.43C369 259.21 351.27 297.95 322.44 324.99C319.49 327.76 314.74 326.76 313 323.1C308.22 313.08 301.07 304.5 291.76 297.74C288.73 295.54 288.46 291.17 291.13 288.55C308.94 271.12 320 246.83 320 220C320 165.81 274.86 121.96 220.21 124.07C170.48 126 130.14 166.23 128.08 215.95C126.91 244.38 138.17 270.25 156.87 288.55ZM288 224C288 259.35 259.35 288 224 288C188.65 288 160 259.35 160 224C160 188.65 188.65 160 224 160C259.35 160 288 188.65 288 224Z" />
</svg>