<svg version="1.2" baseProfile="tiny-ps" xmlns="http://www.w3.org/2000/svg" viewBox="0 0 512 512" width="512" height="512">
	<title>sign-out-svg</title>
	<style>
		tspan { white-space:pre }
		.shp0 { fill: #000000 } 
	</style>
	<path id="Layer" fill-rule="evenodd" class="shp0" d="M497 273L329 441C314 456 288 445.5 288 424L288 328L152 328C138.7 328 128 317.3 128 304L128 208C128 194.7 138.7 184 152 184L288 184L288 88C288 66.6 313.9 56 329 71L497 239C506.3 248.4 506.3 263.6 497 273ZM180 448L96 448C43 448 0 405 0 352L0 160C0 107 43 64 96 64L180 64C186.6 64 192 69.4 192 76L192 116C192 122.6 186.6 128 180 128L96 128C78.3 128 64 142.3 64 160L64 352C64 369.7 78.3 384 96 384L180 384C186.6 384 192 389.4 192 396L192 436C192 442.6 186.6 448 180 448Z" />
</svg>